<svg width="192" height="49" viewBox="0 0 192 49" fill="none" xmlns="http://www.w3.org/2000/svg">
<path d="M77.6348 21.3188V31.0235H79.1674V23.8836L82.0668 31.0235H83.4061L86.3056 23.8836V31.0235H87.8382V21.3188H85.8224L82.7848 28.9578L79.692 21.3188H77.6348Z" fill="#6D6E70"/>
<path d="M96.6359 29.7203H96.346C96.0284 29.7203 95.8765 29.5539 95.8765 29.2212V26.4207C95.8765 25.5889 95.6142 24.9512 95.1033 24.5075C94.5787 24.0639 93.8469 23.8421 92.908 23.8421C92.0105 23.8421 91.2926 24.05 90.7403 24.4382C90.188 24.8264 89.8704 25.3809 89.8014 26.088H91.265C91.3202 25.783 91.4859 25.5334 91.762 25.3393C92.0381 25.1452 92.3971 25.0482 92.839 25.0482C93.3222 25.0482 93.7088 25.173 93.9849 25.3948C94.2611 25.6166 94.3992 25.9355 94.3992 26.3237V26.7534H92.618C91.6239 26.7534 90.8784 26.9614 90.3675 27.3496C89.8428 27.7378 89.5943 28.3062 89.5943 29.0271C89.5943 29.6787 89.829 30.1917 90.3123 30.5521C90.7817 30.9264 91.4168 31.1067 92.2176 31.1067C93.2394 31.1067 94.0126 30.7046 94.551 29.8867C94.551 30.261 94.6477 30.5383 94.8548 30.7323C95.0481 30.9264 95.3795 31.0235 95.8489 31.0235H96.6359V29.7203ZM94.3992 27.8625V28.1121C94.3854 28.6666 94.2059 29.1103 93.8607 29.443C93.5155 29.7757 93.0323 29.9421 92.4247 29.9421C92.0105 29.9421 91.693 29.8589 91.4583 29.6648C91.2235 29.4846 91.1131 29.2351 91.1131 28.9301C91.1131 28.5835 91.2373 28.32 91.4859 28.1398C91.7344 27.9596 92.0796 27.8625 92.549 27.8625H94.3992Z" fill="#6D6E70"/>
<path d="M101.77 23.9252H101.438C100.886 23.9252 100.458 24.0223 100.141 24.2164C99.8092 24.4105 99.5468 24.66 99.3535 24.9927L99.1879 23.9252H97.8624V31.0235H99.3535V27.4605C99.3535 26.8505 99.4916 26.3375 99.7677 25.9355C100.044 25.5334 100.486 25.3255 101.107 25.3255H101.77V23.9252Z" fill="#6D6E70"/>
<path d="M103.131 21.3188V31.0235H104.622V29.2073L105.878 27.8764L107.977 31.0235H109.744L106.941 26.7812L109.579 23.9252H107.853L104.622 27.3912V21.3188H103.131Z" fill="#6D6E70"/>
<path d="M110.681 25.575C110.392 26.1296 110.253 26.7673 110.253 27.4882C110.253 28.2091 110.392 28.8469 110.695 29.3876C110.999 29.9421 111.413 30.358 111.966 30.663C112.518 30.968 113.153 31.1067 113.899 31.1067C114.741 31.1067 115.445 30.8848 116.011 30.4135C116.577 29.956 116.922 29.3598 117.06 28.6389H115.569C115.459 29.041 115.252 29.346 114.948 29.5678C114.63 29.7896 114.244 29.8867 113.788 29.8867C113.208 29.8867 112.739 29.7064 112.394 29.346C112.035 28.9855 111.841 28.5003 111.814 27.8764V27.7932H117.143C117.171 27.5991 117.185 27.4189 117.185 27.2248C117.171 26.5455 117.019 25.9493 116.715 25.4364C116.411 24.9373 116.011 24.5352 115.486 24.258C114.962 23.9807 114.368 23.8421 113.691 23.8421C113.015 23.8421 112.421 23.9946 111.897 24.2996C111.372 24.6046 110.971 25.0205 110.681 25.575ZM115.666 26.698H111.869C111.924 26.1989 112.117 25.8107 112.476 25.5057C112.835 25.2007 113.25 25.0482 113.747 25.0482C114.271 25.0482 114.699 25.2007 115.045 25.4918C115.39 25.783 115.597 26.185 115.666 26.698Z" fill="#6D6E70"/>
<path d="M119.206 25.2423V29.0964C119.206 29.7619 119.358 30.2471 119.662 30.5521C119.965 30.871 120.463 31.0235 121.139 31.0235H122.575V29.7064H121.443C121.167 29.7064 120.987 29.651 120.877 29.5401C120.766 29.4292 120.711 29.2212 120.711 28.9439V25.2423H122.409V23.9252H120.711V21.9427H119.206V23.9252H117.977V25.2423H119.206Z" fill="#6D6E70"/>
<path d="M129.299 24.2857C128.788 23.9946 128.208 23.8421 127.573 23.8421C126.606 23.8421 125.833 24.2302 125.267 24.9789L125.087 23.9252H123.789V33.7962H125.281V30.0253C125.502 30.358 125.819 30.6214 126.206 30.8155C126.592 31.0096 127.048 31.1067 127.573 31.1067C128.208 31.1067 128.788 30.968 129.299 30.663C129.796 30.358 130.196 29.9421 130.486 29.3876C130.762 28.833 130.914 28.1953 130.914 27.4744C130.914 26.7396 130.762 26.1018 130.486 25.5473C130.196 24.9927 129.796 24.5768 129.299 24.2857ZM128.815 29.1796C128.429 29.6232 127.932 29.8451 127.324 29.8451C126.703 29.8451 126.206 29.6232 125.833 29.1796C125.446 28.736 125.267 28.1675 125.267 27.4466C125.267 26.7534 125.446 26.1989 125.833 25.7691C126.206 25.3393 126.703 25.1175 127.324 25.1175C127.932 25.1175 128.429 25.3393 128.815 25.7691C129.202 26.2128 129.395 26.7812 129.395 27.4744C129.395 28.1675 129.202 28.736 128.815 29.1796Z" fill="#6D6E70"/>
<path d="M132.523 21.3188V31.0235H134.014V21.3188H132.523Z" fill="#6D6E70"/>
<path d="M142.656 29.7203H142.366C142.048 29.7203 141.896 29.5539 141.896 29.2212V26.4207C141.896 25.5889 141.634 24.9512 141.123 24.5075C140.598 24.0639 139.867 23.8421 138.928 23.8421C138.03 23.8421 137.312 24.05 136.76 24.4382C136.208 24.8264 135.89 25.3809 135.821 26.088H137.285C137.34 25.783 137.506 25.5334 137.782 25.3393C138.058 25.1452 138.417 25.0482 138.859 25.0482C139.342 25.0482 139.728 25.173 140.005 25.3948C140.281 25.6166 140.419 25.9355 140.419 26.3237V26.7534H138.638C137.644 26.7534 136.898 26.9614 136.387 27.3496C135.862 27.7378 135.614 28.3062 135.614 29.0271C135.614 29.6787 135.849 30.1917 136.332 30.5521C136.801 30.9264 137.437 31.1067 138.237 31.1067C139.259 31.1067 140.032 30.7046 140.571 29.8867C140.571 30.261 140.667 30.5383 140.874 30.7323C141.068 30.9264 141.399 31.0235 141.869 31.0235H142.656V29.7203ZM140.419 27.8625V28.1121C140.405 28.6666 140.226 29.1103 139.88 29.443C139.535 29.7757 139.052 29.9421 138.444 29.9421C138.03 29.9421 137.713 29.8589 137.478 29.6648C137.243 29.4846 137.133 29.2351 137.133 28.9301C137.133 28.5835 137.257 28.32 137.506 28.1398C137.754 27.9596 138.099 27.8625 138.569 27.8625H140.419Z" fill="#6D6E70"/>
<path d="M149.336 30.4135C149.902 29.9421 150.261 29.3044 150.399 28.4726H148.88C148.784 28.8885 148.59 29.2212 148.287 29.4707C147.983 29.7203 147.596 29.8312 147.141 29.8312C146.533 29.8312 146.05 29.6232 145.691 29.1796C145.332 28.736 145.152 28.1675 145.152 27.4605C145.152 26.7673 145.332 26.2128 145.691 25.7691C146.05 25.3393 146.533 25.1175 147.141 25.1175C147.582 25.1175 147.955 25.2423 148.259 25.478C148.563 25.7275 148.756 26.0464 148.866 26.4484H150.399C150.261 25.6443 149.902 25.0205 149.35 24.5491C148.784 24.0777 148.066 23.8421 147.182 23.8421C146.464 23.8421 145.843 23.9946 145.304 24.2996C144.766 24.6046 144.351 25.0205 144.062 25.5612C143.758 26.1157 143.62 26.7396 143.62 27.4605C143.62 28.1814 143.758 28.8191 144.048 29.3737C144.338 29.9282 144.752 30.358 145.29 30.663C145.815 30.968 146.436 31.1067 147.141 31.1067C148.024 31.1067 148.756 30.8848 149.336 30.4135Z" fill="#6D6E70"/>
<path d="M152.053 25.575C151.763 26.1296 151.625 26.7673 151.625 27.4882C151.625 28.2091 151.763 28.8469 152.067 29.3876C152.371 29.9421 152.785 30.358 153.337 30.663C153.889 30.968 154.525 31.1067 155.27 31.1067C156.112 31.1067 156.817 30.8848 157.383 30.4135C157.949 29.956 158.294 29.3598 158.432 28.6389H156.941C156.83 29.041 156.623 29.346 156.32 29.5678C156.002 29.7896 155.615 29.8867 155.16 29.8867C154.58 29.8867 154.11 29.7064 153.765 29.346C153.406 28.9855 153.213 28.5003 153.185 27.8764V27.7932H158.515C158.542 27.5991 158.556 27.4189 158.556 27.2248C158.542 26.5455 158.391 25.9493 158.087 25.4364C157.783 24.9373 157.383 24.5352 156.858 24.258C156.333 23.9807 155.74 23.8421 155.063 23.8421C154.387 23.8421 153.793 23.9946 153.268 24.2996C152.743 24.6046 152.343 25.0205 152.053 25.575ZM157.038 26.698H153.241C153.296 26.1989 153.489 25.8107 153.848 25.5057C154.207 25.2007 154.621 25.0482 155.118 25.0482C155.643 25.0482 156.071 25.2007 156.416 25.4918C156.761 25.783 156.968 26.185 157.038 26.698Z" fill="#6D6E70"/>
<path d="M57.0874 27.7785L57.0997 43.1798C57.0997 45.6478 59.0993 47.8749 61.5511 48.0232C64.3075 48.19 66.5931 45.9969 66.5931 43.2663V16.3372C66.5931 13.7919 64.6397 11.6327 62.111 11.4968C60.5329 11.4103 59.287 12.0961 58.1826 13.2174L41.5583 29.9098C40.5585 30.9261 39.9371 32.3161 39.9371 33.8575L39.9494 44.9899L57.0874 27.7785Z" fill="url(#paint0_linear_737_2156)"/>
<path d="M28.7403 16.2572C28.7403 13.6254 30.866 11.491 33.487 11.491C36.108 11.491 38.2337 13.6254 38.2337 16.2572V43.2666C38.2337 45.8983 36.108 48.0327 33.487 48.0327C30.866 48.0327 28.7403 45.8983 28.7403 43.2666V16.2572Z" fill="url(#paint1_linear_737_2156)"/>
<path d="M33.487 9.53238C36.1085 9.53238 38.2337 7.39848 38.2337 4.76619C38.2337 2.1339 36.1085 0 33.487 0C30.8655 0 28.7403 2.1339 28.7403 4.76619C28.7403 7.39848 30.8655 9.53238 33.487 9.53238Z" fill="url(#paint2_linear_737_2156)"/>
<path d="M10.0057 31.7449L9.99341 16.3436C9.99341 13.8756 7.99383 11.6485 5.54203 11.5002C2.78568 11.3303 0.5 13.5265 0.5 16.2571V43.1862C0.5 45.7315 2.45344 47.8906 4.98215 48.0265C6.56028 48.113 7.80617 47.4273 8.91056 46.306L25.5348 29.6136C26.5346 28.5973 27.156 27.2073 27.156 25.6659L27.1437 14.5335L10.0057 31.7449Z" fill="url(#paint3_linear_737_2156)"/>
<defs>
<linearGradient id="paint0_linear_737_2156" x1="0.499968" y1="47.9999" x2="66.665" y2="11.7384" gradientUnits="userSpaceOnUse">
<stop stop-color="#6A5AFF"/>
<stop offset="1" stop-color="#00D3C3"/>
</linearGradient>
<linearGradient id="paint1_linear_737_2156" x1="33.487" y1="8.6219e-05" x2="33.487" y2="48.0327" gradientUnits="userSpaceOnUse">
<stop stop-color="#929497"/>
<stop offset="1" stop-color="#6D6E70"/>
</linearGradient>
<linearGradient id="paint2_linear_737_2156" x1="33.487" y1="0" x2="33.487" y2="48" gradientUnits="userSpaceOnUse">
<stop stop-color="#929497"/>
<stop offset="1" stop-color="#6D6E70"/>
</linearGradient>
<linearGradient id="paint3_linear_737_2156" x1="0.5" y1="48.0001" x2="66.6653" y2="11.739" gradientUnits="userSpaceOnUse">
<stop stop-color="#6A5AFF"/>
<stop offset="1" stop-color="#00D3C3"/>
</linearGradient>
</defs>
</svg>
