<svg width="67" height="49" viewBox="0 0 67 49" fill="none" xmlns="http://www.w3.org/2000/svg">
<path d="M57.0874 27.7785L57.0997 43.1798C57.0997 45.6478 59.0993 47.8749 61.5511 48.0232C64.3075 48.19 66.5931 45.9969 66.5931 43.2663V16.3372C66.5931 13.7919 64.6397 11.6327 62.111 11.4968C60.5329 11.4103 59.287 12.0961 58.1826 13.2174L41.5583 29.9098C40.5585 30.9261 39.9371 32.3161 39.9371 33.8575L39.9494 44.9899L57.0874 27.7785Z" fill="url(#paint0_linear_1_2)"/>
<path d="M28.7403 16.2572C28.7403 13.6254 30.866 11.491 33.487 11.491C36.108 11.491 38.2337 13.6254 38.2337 16.2572V43.2666C38.2337 45.8983 36.108 48.0327 33.487 48.0327C30.866 48.0327 28.7403 45.8983 28.7403 43.2666V16.2572Z" fill="url(#paint1_linear_1_2)"/>
<path d="M33.487 9.53238C36.1085 9.53238 38.2337 7.39848 38.2337 4.76619C38.2337 2.1339 36.1085 0 33.487 0C30.8655 0 28.7403 2.1339 28.7403 4.76619C28.7403 7.39848 30.8655 9.53238 33.487 9.53238Z" fill="url(#paint2_linear_1_2)"/>
<path d="M10.0057 31.7449L9.99341 16.3436C9.99341 13.8756 7.99383 11.6485 5.54203 11.5002C2.78568 11.3303 0.5 13.5265 0.5 16.2571V43.1862C0.5 45.7315 2.45344 47.8906 4.98215 48.0265C6.56028 48.113 7.80617 47.4273 8.91056 46.306L25.5348 29.6136C26.5346 28.5973 27.156 27.2073 27.156 25.6659L27.1437 14.5335L10.0057 31.7449Z" fill="url(#paint3_linear_1_2)"/>
<defs>
<linearGradient id="paint0_linear_1_2" x1="0.499967" y1="47.9999" x2="66.665" y2="11.7384" gradientUnits="userSpaceOnUse">
<stop stop-color="#6A5AFF"/>
<stop offset="1" stop-color="#00D3C3"/>
</linearGradient>
<linearGradient id="paint1_linear_1_2" x1="33.487" y1="8.40472e-05" x2="33.487" y2="48.0327" gradientUnits="userSpaceOnUse">
<stop stop-color="#929497"/>
<stop offset="1" stop-color="#6D6E70"/>
</linearGradient>
<linearGradient id="paint2_linear_1_2" x1="33.487" y1="0" x2="33.487" y2="48" gradientUnits="userSpaceOnUse">
<stop stop-color="#929497"/>
<stop offset="1" stop-color="#6D6E70"/>
</linearGradient>
<linearGradient id="paint3_linear_1_2" x1="0.499999" y1="48.0001" x2="66.6653" y2="11.739" gradientUnits="userSpaceOnUse">
<stop stop-color="#6A5AFF"/>
<stop offset="1" stop-color="#00D3C3"/>
</linearGradient>
</defs>
</svg>
